<?xml version="1.0" encoding="UTF-8"?>
<svg id="Ebene_2" data-name="Ebene 2" xmlns="http://www.w3.org/2000/svg" viewBox="0 0 160 160">
  <g id="Magenta">
    <path d="M11.54,27.37c3.75,11.59,5.28,23.25,6.78,35.1,1.9,11.59,4.14,61.55,15.09,64.38,5.92-1.11,10.59-16.58,12.38-22.13,2.36-5.94,4.15-12.45,6.83-18.36,3.16-7.51,9.81-18.02,19.66-14.94,10.2,3.3,15.67,21.63,26.11,21.74,5.59-.65,9.2-5.55,13.02-9.44,4.19-4.66,8.47-9.52,12.93-14.3,6.77-6.92,14.34-14.83,24.33-16.92,1.69-.29,3.42-.37,5.11-.15,1.69.22,3.31.73,4.8,1.45.2.1.29.34.19.55-.09.18-.3.27-.49.21-12.85-3.56-22.5,9.82-29.61,18.57-9.47,11.7-23.48,37.23-41.2,23.37-5.4-4.28-8.92-10.01-13.3-14.73-2.2-2.34-4.8-4.71-7.86-2.53-5.51,4.37-7.87,12.28-10.41,18.82-.99,2.82-2.2,6.49-3.36,9.3-2.39,7.18-6.41,21.28-15.22,25.97-17.22,6.54-21.36-24.11-23.26-35.25-2.68-17.19-4.44-34.2-8.4-50.97-1.29-5.45-2.88-10.79-4.96-15.68-2.83-7.43,8.01-11.6,10.84-4.08h0Z"/>
  </g>
</svg>