<?xml version="1.0" encoding="UTF-8"?>
<svg xmlns="http://www.w3.org/2000/svg" viewBox="0 0 160 160">
  <defs>
    <style>
      .cls-1 {
        fill: #f0f;
      }

      .cls-2 {
        isolation: isolate;
      }

      .cls-3 {
        mix-blend-mode: multiply;
      }

      .cls-4 {
        fill: #ff0;
      }

      .cls-5 {
        fill: aqua;
      }
    </style>
  </defs>
  <g class="cls-2">
    <g id="Ebene_2" data-name="Ebene 2">
      <g id="Magenta" class="cls-3">
        <path class="cls-5" d="M14.93,25.7c3.69,11.33,5.16,22.76,6.63,34.35,1.86,11.34,4.05,60.23,14.76,62.99,5.79-1.09,10.36-16.21,12.1-21.63,4.14-10.07,6.69-23.98,15.99-30.98,6.15-4.26,12.63-1.66,17.11,3.53,5.14,5.1,10.84,16.27,18.36,16.13,5.47-.63,9-5.43,12.74-9.24,9.9-10.31,25.6-32.48,41.45-30.69,1.65.21,3.24.72,4.7,1.42.2.1.28.34.19.54-.09.18-.29.26-.48.21-2.92-.86-6.01-.81-8.87.15-5.73,1.98-10.22,6.38-14.22,10.86-6.32,7.05-11.26,14.84-17.49,22.18-7.48,9.09-17.63,16.68-28.71,7.85-5.28-4.19-8.72-9.79-13.01-14.41-1.34-1.39-2.55-2.58-4.13-3.17-8.52-1.91-14.54,22.98-16.92,27.89-1.7,5.43-3.6,11.01-6.5,16.35-1.51,2.67-3.17,5.35-6,7.76-5.38,4.67-12.45,2.47-16.16-2.98-5.99-8.84-7.28-19.81-9.1-29.9-1.74-11.3-3.14-22.51-4.99-33.55-1.81-10.71-3.96-21.77-8.09-31.66-2.71-7.25,7.82-11.29,10.61-3.99h0Z"/>
      </g>
      <g id="Magenta-2" data-name="Magenta" class="cls-3">
        <path class="cls-1" d="M13.44,25.7c3.69,11.33,5.16,22.76,6.63,34.35,1.86,11.34,4.05,60.23,14.76,62.99,5.8-1.09,10.36-16.23,12.11-21.65,4.07-9.94,6.93-24.59,16.26-31.15,6.23-4.14,12.71-1.19,17.09,3.99,5.04,5.08,10.9,16.43,18.47,15.82,4.37-.4,8.74-5.25,12.96-9.65,10.63-10.7,29.88-36.84,47.06-28.82.2.1.28.34.19.53-.09.18-.29.26-.48.21-6.02-1.89-12.08.78-16.8,4.53-4.83,3.83-8.9,8.58-12.81,13.38-3.99,4.84-7.67,9.99-11.93,14.89-5.63,6.55-14.03,14.82-23.63,11.39-5.26-1.8-9.22-6.26-12.46-10.15-2.08-2.51-3.98-5.04-5.95-7.17-1.65-1.65-3.09-3.39-5.33-3.55-8.15.58-13.37,22.57-15.93,28.04-1.7,5.43-3.6,11.01-6.5,16.35-1.51,2.67-3.17,5.35-6,7.76-5.38,4.67-12.45,2.47-16.16-2.98-5.99-8.84-7.28-19.81-9.1-29.9-1.74-11.3-3.14-22.51-4.99-33.55-1.81-10.71-3.96-21.77-8.09-31.66-2.71-7.25,7.82-11.29,10.61-3.99h0Z"/>
      </g>
      <g id="Magenta-3" data-name="Magenta" class="cls-3">
        <path class="cls-4" d="M12.04,25.7c3.69,11.33,5.16,22.76,6.63,34.35,1.37,11.32,2.31,22.58,3.95,33.62,1.26,8.04,2.49,16.18,5.64,23.52,1.29,2.61,3.8,7.76,7.07,5.04,1.56-1.18,3.02-3.35,4.25-5.59,2.57-4.77,4.33-9.98,5.96-15.25,4.07-9.93,7.02-24.95,16.52-31.32,6.36-4,12.73-.78,17.07,4.42,5.7,5.8,12.53,19.83,21.89,14.29,3.67-2.23,6.75-5.61,9.87-8.81,4.33-4.54,8.76-9.22,13.38-13.77,7.01-6.6,14.81-13.97,24.69-15.92,1.67-.27,3.38-.35,5.05-.14,1.67.21,3.29.71,4.77,1.41.2.1.28.33.19.53-.09.18-.29.27-.48.21-22.79-6.49-40,41.46-59.61,44.76-11.77,1.86-18.61-10.43-25.16-17.68-3.66-4.13-6.54-5.51-10.46-.69-3.56,4.49-5.76,10.52-7.79,16.06-.9,2.48-2.5,7.36-3.22,8.91-1.7,5.43-3.6,11.01-6.5,16.35-1.87,3.32-4.51,7.41-8.5,9.37-4.93,2.61-10.89-.4-13.65-4.59-5.99-8.84-7.28-19.81-9.1-29.9-2.62-16.82-4.34-33.47-8.21-49.87-1.25-5.34-2.85-10.55-4.86-15.34-2.71-7.25,7.82-11.29,10.61-3.99h0Z"/>
      </g>
    </g>
  </g>
</svg>