<?xml version="1.0" encoding="UTF-8"?>
<svg id="Ebene_2" data-name="Ebene 2" xmlns="http://www.w3.org/2000/svg" viewBox="0 0 250 100">
  <g id="Magenta">
    <path d="M9.58,4.33c3.21,9.95,4.45,19.74,5.69,29.46,1.61,9.77,3.45,51.59,12.66,54.02,5-1,8.82-13.76,10.35-18.44,3.73-8.83,7.3-27.79,19.23-28.5,3.65-.2,6.98,2.41,9.19,4.85,5.74,5.89,12.17,19.42,21.28,11.26,11.11-9.18,28.15-38.11,44.98-30.45.17.08.24.29.16.46-.07.15-.25.23-.41.18-5.19-1.62-10.25.66-14.21,3.95-4.04,3.34-7.4,7.48-10.63,11.63-7.02,8.38-16.97,27.14-30.31,22.11-4.37-1.71-7.64-5.48-10.38-8.79-1.76-2.14-3.38-4.28-5.05-6.06-1.4-1.38-2.62-2.81-4.5-2.85-7.02.86-11.27,19.21-13.54,24.05-2.45,7.24-4.63,15.09-10.72,20.68-6.39,5.3-13.24.26-16.01-6.21-3.23-7.01-4.41-14.61-5.65-21.99-1.49-9.69-2.69-19.3-4.28-28.77C5.86,25.72,4.04,16.22.47,7.73-1.9,1.47,7.23-2.01,9.58,4.33h0Z"/>
  </g>
  <g>
    <path d="M129.37,56.57v36.53h-6.4v-36.53h-3.43v-5.31h3.51v-7.18c0-.62.01-1.24.04-1.83.03-.6.17-1.18.43-1.76.42-1.09,1.13-1.78,2.15-2.07,1.01-.29,2.04-.43,3.08-.43,1.4,0,2.78.08,4.14.23v5.31c-1.04-.05-1.87.01-2.5.2-.62.18-.94.92-.94,2.22v5.31h3.59v5.31h-3.67Z"/>
    <path d="M160.74,83.89c0,.89-.04,1.67-.12,2.34-.08.68-.25,1.43-.51,2.26-.21.62-.52,1.25-.94,1.87-.42.62-.96,1.18-1.64,1.68-.68.49-1.52.91-2.54,1.25-1.01.34-2.25.51-3.71.51-.42,0-1.18-.05-2.3-.16-1.12-.1-2.25-.52-3.39-1.25-.94-.62-1.65-1.34-2.15-2.15-.49-.81-.85-1.68-1.05-2.61-.21-.94-.33-1.9-.35-2.89-.03-.99-.04-1.95-.04-2.89v-19.28c0-.88.01-1.77.04-2.65.03-.88.13-1.74.31-2.57.18-.83.47-1.64.86-2.42s.95-1.48,1.68-2.11c.57-.57,1.12-.96,1.64-1.17.52-.21.91-.36,1.17-.47.42-.16.91-.28,1.48-.39.57-.1,1.35-.16,2.34-.16.31,0,.84.03,1.6.08.75.05,1.57.22,2.46.51.88.29,1.74.75,2.58,1.4.83.65,1.48,1.6,1.95,2.85.31.83.49,1.64.55,2.42.05.78.08,1.61.08,2.5v23.49ZM154.5,59.77c0-1.04-.17-1.96-.5-2.77-.33-.81-1.17-1.21-2.51-1.21-.1,0-.36.01-.77.04-.41.03-.8.17-1.15.43-.57.42-.93.91-1.08,1.48-.15.57-.23,1.43-.23,2.57v25.52c0,.42.08.83.23,1.25.15.42.44.78.85,1.09.41.31,1.03.47,1.85.47,1.44,0,2.35-.4,2.74-1.21.39-.81.58-1.81.58-3v-24.66Z"/>
    <path d="M184.47,66.33v-7.77c0-.39-.05-.71-.16-.98-.16-.47-.38-.82-.66-1.05-.29-.23-.57-.4-.86-.51-.29-.1-.56-.16-.82-.16h-.62c-.78,0-1.43.16-1.95.47-.62.42-.99.96-1.09,1.64-.1.68-.16,1.35-.16,2.03v25.37c0,.62.09,1.2.27,1.72.18.52.61.94,1.29,1.25.31.11.61.18.9.23.29.05.48.08.59.08.16,0,.38-.01.66-.04.29-.03.61-.12.98-.27.83-.31,1.31-.88,1.44-1.72.13-.83.19-1.61.19-2.34v-7.8h6.17v9.09c0,.7-.1,1.44-.31,2.22-.1.36-.26.79-.46,1.29-.21.49-.51,1.01-.92,1.56s-.93,1.05-1.58,1.52c-.64.47-1.42.86-2.35,1.17-.37.1-.88.21-1.53.31-.65.1-1.43.16-2.31.16-.26,0-.76-.01-1.49-.04-.73-.03-1.54-.17-2.43-.43-.89-.26-1.77-.69-2.63-1.29-.86-.6-1.53-1.47-2-2.62-.26-.62-.44-1.24-.55-1.83-.1-.6-.16-1.52-.16-2.77v-24.74c0-1.04.03-1.81.08-2.3.05-.49.18-1.03.39-1.6.42-1.35,1.05-2.41,1.91-3.16.86-.75,1.74-1.31,2.65-1.68.91-.36,1.78-.58,2.61-.66.83-.08,1.43-.12,1.8-.12.26,0,.81.03,1.64.08.83.05,1.69.26,2.57.62,1.51.57,2.58,1.3,3.2,2.19.62.89,1.07,1.64,1.33,2.26.31.83.49,1.63.55,2.38.05.75.08,1.57.08,2.46v5.78h-6.24Z"/>
    <path d="M213.81,93.1v-2.65c-.16.26-.4.57-.74.94-.34.36-.75.74-1.25,1.13-.49.39-1.08.71-1.76.98-.68.26-1.48.39-2.42.39-.31,0-.86-.07-1.64-.2-.78-.13-1.54-.48-2.26-1.05-1.2-.94-1.9-2.07-2.11-3.39-.21-1.33-.31-2.67-.31-4.02v-33.95h6.48v34.38c0,.39.08.74.23,1.05.26.47.61.82,1.05,1.05.44.23.92.35,1.44.35.21,0,.49-.03.86-.08.36-.05.75-.23,1.17-.55.67-.57,1.05-1.29,1.13-2.15s.12-1.65.12-2.38v-31.69h6.24v41.83h-6.24Z"/>
    <path d="M249.48,82.64c0,.31-.01.83-.04,1.56-.03.73-.16,1.55-.39,2.46-.23.91-.61,1.83-1.13,2.77-.52.94-1.25,1.8-2.19,2.58-.57.42-1.31.85-2.22,1.29-.91.44-2.15.66-3.71.66-.47,0-1.29-.09-2.46-.27-1.17-.18-2.36-.71-3.55-1.6-.89-.62-1.55-1.37-1.99-2.22-.44-.86-.77-1.77-.98-2.73-.21-.96-.33-1.95-.35-2.97-.03-1.01-.04-1.99-.04-2.93v-3.51h5.93v4.96c0,.49.03.98.08,1.44,0,.26.03.62.08,1.09.05.47.2.94.43,1.4s.58.87,1.05,1.21c.47.34,1.14.51,2.03.51.57,0,1.03-.09,1.37-.27.34-.18.56-.32.66-.43.52-.42.87-.98,1.05-1.68.18-.7.27-1.68.27-2.93,0-.57-.01-1-.04-1.29-.03-.29-.09-.59-.19-.9-.21-1.04-.61-1.98-1.21-2.81-.6-.83-1.26-1.61-1.99-2.34l-3.36-3.36c-.42-.42-.81-.82-1.17-1.21-.36-.39-.73-.79-1.09-1.21-1.3-1.4-2.17-2.78-2.61-4.14-.44-1.35-.66-2.97-.66-4.84,0-.21.01-.62.04-1.25.03-.62.13-1.34.31-2.15.18-.81.47-1.64.86-2.5s.98-1.63,1.76-2.3c.57-.47,1.35-.92,2.34-1.37.99-.44,2.31-.66,3.98-.66.31,0,.77.03,1.37.08.6.05,1.26.2,1.99.43.73.23,1.46.61,2.19,1.13.73.52,1.35,1.25,1.87,2.19.57,1.09.94,2.32,1.09,3.67.16,1.35.23,3.23.23,5.62l-5.78-.08c0-1.14-.03-2.17-.08-3.08-.05-.91-.19-1.68-.43-2.3-.23-.62-.57-1.09-1.01-1.4-.44-.31-1.08-.47-1.91-.47-1.25,0-2.06.39-2.42,1.17-.36.78-.55,1.69-.55,2.73,0,1.61.29,2.88.86,3.79.57.91,1.4,1.89,2.5,2.93l2.89,2.81c.73.62,1.4,1.3,2.03,2.03,1.51,1.61,2.6,3.25,3.28,4.92.68,1.67,1.01,3.59,1.01,5.78Z"/>
  </g>
</svg>