<?xml version="1.0" encoding="UTF-8"?>
<svg xmlns="http://www.w3.org/2000/svg" viewBox="0 0 250 100">
  <defs>
    <style>
      .cls-1 {
        fill: #f0f;
      }

      .cls-2 {
        isolation: isolate;
      }

      .cls-3 {
        mix-blend-mode: multiply;
      }

      .cls-4 {
        fill: #ff0;
      }

      .cls-5 {
        fill: aqua;
      }
    </style>
  </defs>
  <g class="cls-2">
    <g id="Ebene_2" data-name="Ebene 2">
      <g>
        <g id="Magenta" class="cls-3">
          <path class="cls-5" d="M12.16,4.79c3.18,9.85,4.41,19.54,5.63,29.16,1.59,9.67,3.42,51.07,12.53,53.48,4.95-.99,8.73-13.62,10.24-18.26,3.69-8.74,7.23-27.51,19.04-28.22,6.71-.05,10.62,6.83,14.35,11.15,8.37,10.78,12.89,8.81,21.16-.49,8.85-9.12,24.53-31.72,39.18-24.85.17.08.24.29.16.45-.07.15-.25.22-.41.18-5.14-1.6-10.15.66-14.07,3.91-4,3.31-7.32,7.4-10.52,11.51-6.95,8.3-16.8,26.87-30,21.89-4.33-1.7-7.56-5.43-10.27-8.7-1.74-2.12-3.34-4.23-5-6-1.39-1.37-2.59-2.78-4.46-2.82-6.95.85-11.16,19.02-13.41,23.81-2.42,7.17-4.58,14.94-10.61,20.47-6.33,5.25-13.11.26-15.85-6.15-3.2-6.93-4.36-14.46-5.6-21.77-1.47-9.59-2.66-19.11-4.23-28.48-1.55-9.1-3.35-18.51-6.88-26.91C.79,1.96,9.83-1.48,12.16,4.79h0Z"/>
        </g>
        <g>
          <path d="M130.74,56.51v36.16h-6.34v-36.16h-3.4v-5.25h3.48v-7.11c0-.62.01-1.22.04-1.82.03-.59.17-1.17.43-1.74.41-1.08,1.12-1.76,2.12-2.05,1-.28,2.02-.42,3.05-.42,1.39,0,2.75.08,4.1.23v5.25c-1.03-.05-1.85.01-2.47.19-.62.18-.93.91-.93,2.2v5.25h3.55v5.25h-3.63Z"/>
          <path d="M161.8,83.55c0,.88-.04,1.65-.12,2.32-.08.67-.24,1.42-.5,2.24-.21.62-.52,1.24-.93,1.85-.41.62-.95,1.17-1.62,1.66-.67.49-1.51.9-2.51,1.24-1,.33-2.23.5-3.67.5-.41,0-1.17-.05-2.28-.15-1.11-.1-2.23-.52-3.36-1.24-.93-.62-1.64-1.33-2.12-2.12-.49-.8-.84-1.66-1.04-2.59-.21-.93-.32-1.88-.35-2.86-.03-.98-.04-1.93-.04-2.86v-19.08c0-.88.01-1.75.04-2.63.03-.87.13-1.72.31-2.55.18-.82.46-1.62.85-2.4s.94-1.47,1.66-2.09c.57-.57,1.11-.95,1.62-1.16.51-.21.9-.36,1.16-.46.41-.15.9-.28,1.47-.39.57-.1,1.34-.15,2.32-.15.31,0,.84.03,1.58.08.75.05,1.56.22,2.43.5.88.28,1.73.75,2.55,1.39.82.64,1.47,1.58,1.93,2.82.31.82.49,1.62.54,2.4.05.77.08,1.6.08,2.47v23.26ZM155.62,59.67c0-1.03-.17-1.94-.5-2.74-.33-.8-1.16-1.2-2.48-1.2-.1,0-.36.01-.76.04-.41.03-.79.17-1.14.43-.56.41-.92.9-1.07,1.47-.15.57-.23,1.42-.23,2.55v25.27c0,.41.08.82.23,1.24.15.41.43.77.84,1.08.41.31,1.02.46,1.83.46,1.42,0,2.33-.4,2.71-1.2.38-.8.57-1.79.57-2.97v-24.42Z"/>
          <path d="M185.29,66.16v-7.69c0-.39-.05-.71-.15-.97-.15-.46-.37-.81-.66-1.04-.28-.23-.57-.4-.85-.5-.28-.1-.55-.15-.81-.15h-.62c-.77,0-1.42.15-1.93.46-.62.41-.98.95-1.08,1.62-.1.67-.15,1.34-.15,2.01v25.11c0,.62.09,1.19.27,1.7.18.52.6.93,1.27,1.24.31.1.6.18.89.23.28.05.48.08.58.08.15,0,.37-.01.66-.04.28-.03.61-.12.97-.27.82-.31,1.3-.87,1.43-1.7.13-.82.19-1.6.19-2.32v-7.73h6.1v9c0,.7-.1,1.43-.31,2.2-.1.36-.25.79-.46,1.27-.2.49-.51,1-.91,1.55s-.93,1.04-1.56,1.51c-.63.46-1.41.85-2.32,1.16-.36.1-.87.21-1.52.31-.65.1-1.41.15-2.29.15-.26,0-.75-.01-1.48-.04-.73-.03-1.53-.17-2.41-.42-.88-.26-1.75-.68-2.6-1.27-.85-.59-1.52-1.46-1.98-2.59-.26-.62-.44-1.22-.54-1.82-.1-.59-.16-1.51-.16-2.74v-24.49c0-1.03.03-1.79.08-2.28.05-.49.18-1.02.39-1.58.41-1.34,1.04-2.38,1.89-3.13.85-.75,1.73-1.3,2.63-1.66.9-.36,1.76-.58,2.59-.66.82-.08,1.42-.12,1.78-.12.26,0,.8.03,1.62.08.82.05,1.67.26,2.55.62,1.49.57,2.55,1.29,3.17,2.16.62.88,1.06,1.62,1.31,2.24.31.82.49,1.61.54,2.36.05.75.08,1.56.08,2.43v5.72h-6.18Z"/>
          <path d="M214.34,92.67v-2.63c-.15.26-.4.57-.73.93-.34.36-.75.73-1.24,1.12-.49.39-1.07.71-1.74.97-.67.26-1.47.39-2.4.39-.31,0-.85-.07-1.62-.19-.77-.13-1.52-.48-2.24-1.04-1.19-.93-1.88-2.05-2.09-3.36-.21-1.31-.31-2.64-.31-3.98v-33.61h6.41v34.04c0,.39.08.73.23,1.04.26.46.6.81,1.04,1.04.44.23.91.35,1.43.35.21,0,.49-.03.85-.08.36-.05.75-.23,1.16-.54.67-.57,1.04-1.28,1.12-2.13s.12-1.63.12-2.36v-31.37h6.18v41.41h-6.18Z"/>
          <path d="M249.65,82.31c0,.31-.01.82-.04,1.55-.03.72-.15,1.53-.39,2.43-.23.9-.61,1.82-1.12,2.74-.52.93-1.24,1.78-2.16,2.55-.57.41-1.3.84-2.2,1.27-.9.44-2.12.66-3.67.66-.46,0-1.28-.09-2.43-.27-1.16-.18-2.33-.71-3.52-1.58-.88-.62-1.53-1.35-1.97-2.2-.44-.85-.76-1.75-.97-2.7-.21-.95-.32-1.93-.35-2.94-.03-1-.04-1.97-.04-2.9v-3.48h5.87v4.91c0,.49.03.97.08,1.43,0,.26.03.62.08,1.08.05.46.19.93.43,1.39s.58.86,1.04,1.2c.46.34,1.13.5,2.01.5.57,0,1.02-.09,1.35-.27.33-.18.55-.32.66-.42.51-.41.86-.97,1.04-1.66.18-.7.27-1.66.27-2.9,0-.57-.01-.99-.04-1.27-.03-.28-.09-.58-.19-.89-.21-1.03-.61-1.96-1.2-2.78-.59-.82-1.25-1.6-1.97-2.32l-3.32-3.32c-.41-.41-.8-.81-1.16-1.2-.36-.39-.72-.78-1.08-1.2-1.29-1.39-2.15-2.75-2.59-4.09-.44-1.34-.66-2.94-.66-4.79,0-.2.01-.62.04-1.24.03-.62.13-1.33.31-2.12.18-.8.46-1.62.85-2.47s.97-1.61,1.74-2.28c.57-.46,1.34-.91,2.32-1.35.98-.44,2.29-.66,3.94-.66.31,0,.76.03,1.35.08.59.05,1.25.19,1.97.43.72.23,1.44.61,2.16,1.12.72.52,1.34,1.24,1.85,2.16.57,1.08.93,2.29,1.08,3.63.15,1.34.23,3.19.23,5.56l-5.72-.08c0-1.13-.03-2.15-.08-3.05-.05-.9-.19-1.66-.42-2.28-.23-.62-.57-1.08-1-1.39-.44-.31-1.07-.46-1.89-.46-1.24,0-2.04.39-2.4,1.16-.36.77-.54,1.67-.54,2.7,0,1.6.28,2.85.85,3.75.57.9,1.39,1.87,2.47,2.9l2.86,2.78c.72.62,1.39,1.29,2.01,2.01,1.49,1.6,2.58,3.22,3.25,4.87.67,1.65,1,3.55,1,5.72Z"/>
        </g>
        <g id="Magenta-2" data-name="Magenta" class="cls-3">
          <path class="cls-1" d="M10.89,4.79c3.18,9.85,4.41,19.54,5.63,29.16,1.59,9.67,3.42,51.07,12.53,53.48,4.95-.99,8.73-13.62,10.24-18.26,3.69-8.76,7.35-27.96,19.39-28.22,6.66.25,10.45,7.1,14.21,11.42,8.33,10.59,12.68,8.46,21.44-1.14,8.68-8.79,22.32-27.1,35.93-25.67,1.41.18,2.77.6,4.02,1.2.17.08.24.28.16.45-.07.15-.25.23-.41.18-7.99-2.36-14.87,3.76-19.96,9.2-5.53,5.89-9.95,12.44-15.31,18.65-3.94,4.34-8.41,9.42-14.74,10.24-9.86,1.03-15.37-9.22-20.95-15.28-3.13-3.53-5.6-4.3-8.79-.3-2.98,3.82-4.83,8.9-6.54,13.58-.76,2.09-2.11,6.22-2.71,7.51-1.44,4.61-3.06,9.34-5.52,13.88-5.53,10.84-15.24,12.35-20.94.44-3.2-6.93-4.36-14.46-5.6-21.77-2.23-14.28-3.69-28.41-6.97-42.34-1.08-4.54-2.4-8.98-4.13-13.05C-.48,1.96,8.57-1.48,10.89,4.79h0Z"/>
        </g>
        <g id="Magenta-3" data-name="Magenta" class="cls-3">
          <path class="cls-4" d="M9.71,4.79c3.18,9.85,4.41,19.54,5.63,29.16,1.59,9.67,3.42,51.07,12.53,53.48,4.95-.99,8.73-13.62,10.24-18.26,3.71-8.79,7.44-28.37,19.72-28.21,6.59.51,10.29,7.35,14.09,11.65,8.84,11.32,13.45,6.91,21.71-1.74,8.91-8.8,22.9-26.69,36.61-25.32,1.42.18,2.79.6,4.05,1.2.17.08.24.28.16.45-.07.15-.25.23-.41.18-19.38-5.5-33.87,35.13-50.61,38-9.99,1.57-15.8-8.85-21.36-15.01-3.08-3.5-5.58-4.67-8.88-.59-3.02,3.81-4.89,8.93-6.61,13.64-.77,2.11-2.12,6.25-2.73,7.56-1.44,4.61-3.06,9.34-5.52,13.88-5.53,10.84-15.24,12.35-20.94.44-3.2-6.93-4.36-14.46-5.6-21.77-2.23-14.28-3.69-28.41-6.97-42.34-1.08-4.54-2.4-8.98-4.13-13.05C-1.66,1.96,7.38-1.48,9.71,4.79h0Z"/>
        </g>
      </g>
    </g>
  </g>
</svg>