<?xml version="1.0" encoding="UTF-8"?>
<svg id="Ebene_2" data-name="Ebene 2" xmlns="http://www.w3.org/2000/svg" viewBox="0 0 160 160">
  <g id="Magenta">
    <path d="M8.86,26.08c5.2,16.6,5.37,34.14,7.95,51.08.62,4.14,1.3,8.25,2.33,12.15.96,3.37,2.01,7.11,4.58,9.41,4.36,3.23,9.34-12.5,10.31-15.75,1.7-4.29,3.05-9.15,5.02-13.51,2.28-5.15,6.3-12.18,13.11-11.3,8.62,1.3,12.2,16.07,20.54,16.3,4.1-.48,6.77-4.08,9.58-6.94,3.1-3.41,6.22-7.01,9.52-10.5,4.96-5.1,10.53-10.92,17.87-12.46,2.48-.46,5.11-.14,7.29.96.15.07.21.25.14.4-.07.13-.22.2-.36.16-9.55-2.58-16.47,7.19-21.79,13.64-6.94,8.63-17.25,27.39-30.28,17.2-4.8-3.68-7.39-9.24-11.94-12.74-6.73-4.01-11.68,16.29-13.73,20.73-1.65,5.08-4.13,13.35-9.31,17.89-5.59,4.66-11.66.17-14.03-5.44-2.8-6.15-3.87-12.8-4.96-19.27-1.31-8.49-2.36-16.91-3.75-25.21-1.36-8.05-2.98-16.36-6.08-23.79-2.05-5.43,5.9-8.48,7.97-3h0Z"/>
  </g>
  <g>
    <path d="M54.09,99.66v32.01h-5.61v-32.01h-3.01v-4.65h3.08v-6.29c0-.55.01-1.08.03-1.61.02-.52.15-1.04.38-1.54.36-.96.99-1.56,1.88-1.81.89-.25,1.79-.38,2.7-.38,1.23,0,2.44.07,3.63.21v4.65c-.91-.05-1.64.01-2.19.17-.55.16-.82.81-.82,1.95v4.65h3.15v4.65h-3.21Z"/>
    <path d="M81.58,123.6c0,.78-.03,1.46-.1,2.05-.07.59-.22,1.25-.44,1.98-.18.55-.46,1.09-.82,1.64-.37.55-.84,1.04-1.44,1.47-.59.43-1.33.8-2.22,1.09-.89.3-1.97.44-3.25.44-.37,0-1.04-.05-2.02-.14-.98-.09-1.97-.46-2.97-1.09-.82-.55-1.45-1.17-1.88-1.88-.43-.71-.74-1.47-.92-2.29-.18-.82-.29-1.66-.31-2.53-.02-.87-.03-1.71-.03-2.53v-16.89c0-.77.01-1.55.03-2.33.02-.77.11-1.53.27-2.26.16-.73.41-1.44.75-2.12s.83-1.3,1.47-1.85c.5-.5.98-.84,1.44-1.03.46-.18.8-.32,1.03-.41.36-.14.8-.25,1.3-.34.5-.09,1.19-.14,2.05-.14.27,0,.74.02,1.4.07.66.05,1.38.19,2.15.44.77.25,1.53.66,2.26,1.23.73.57,1.3,1.4,1.71,2.5.27.73.43,1.44.48,2.12.05.68.07,1.41.07,2.19v20.59ZM76.11,102.46c0-.91-.15-1.72-.44-2.43-.29-.71-1.03-1.06-2.2-1.06-.09,0-.32.01-.68.03-.36.02-.7.15-1.01.38-.5.37-.81.8-.95,1.3-.13.5-.2,1.25-.2,2.26v22.36c0,.37.07.73.2,1.09.13.37.38.68.74.96.36.27.9.41,1.62.41,1.26,0,2.06-.35,2.4-1.06.34-.71.51-1.58.51-2.63v-21.61Z"/>
    <path d="M102.37,108.21v-6.81c0-.34-.05-.63-.14-.85-.14-.41-.33-.72-.58-.92-.25-.21-.5-.35-.75-.44-.25-.09-.49-.14-.72-.14h-.55c-.68,0-1.25.14-1.71.41-.55.37-.87.84-.96,1.44-.09.59-.14,1.19-.14,1.78v22.23c0,.55.08,1.05.24,1.5.16.46.54.82,1.13,1.09.27.09.54.16.79.21.25.05.42.07.51.07.14,0,.33-.01.58-.03.25-.02.54-.1.86-.24.73-.27,1.15-.77,1.26-1.5.11-.73.17-1.41.17-2.05v-6.84h5.4v7.97c0,.62-.09,1.27-.27,1.95-.09.32-.23.7-.4,1.13-.18.43-.45.89-.81,1.37s-.82.92-1.38,1.33c-.56.41-1.25.75-2.06,1.03-.32.09-.77.18-1.34.27-.57.09-1.25.14-2.03.14-.23,0-.67-.01-1.31-.03-.64-.02-1.35-.15-2.13-.38-.78-.23-1.55-.6-2.31-1.13-.76-.52-1.34-1.29-1.75-2.29-.23-.55-.39-1.08-.48-1.61-.09-.52-.14-1.33-.14-2.43v-21.68c0-.91.02-1.58.07-2.02.04-.43.16-.9.34-1.4.36-1.19.92-2.11,1.68-2.77.75-.66,1.53-1.15,2.33-1.47.8-.32,1.56-.51,2.29-.58.73-.07,1.25-.1,1.57-.1.23,0,.71.02,1.44.07.73.05,1.48.23,2.26.55,1.32.5,2.26,1.14,2.8,1.92.55.78.93,1.44,1.16,1.98.27.73.43,1.43.48,2.09.05.66.07,1.38.07,2.15v5.06h-5.47Z"/>
    <path d="M128.09,131.67v-2.33c-.14.23-.35.5-.65.82-.3.32-.66.65-1.09.99-.43.34-.95.63-1.54.85-.59.23-1.3.34-2.12.34-.27,0-.75-.06-1.44-.17-.68-.11-1.35-.42-1.98-.92-1.05-.82-1.66-1.81-1.85-2.97-.18-1.16-.27-2.34-.27-3.52v-29.75h5.68v30.13c0,.34.07.65.21.92.23.41.54.72.92.92.39.21.81.31,1.27.31.18,0,.43-.02.75-.07.32-.05.66-.21,1.03-.48.59-.5.92-1.13.99-1.88s.1-1.45.1-2.09v-27.77h5.47v36.66h-5.47Z"/>
    <path d="M159.34,122.5c0,.27-.01.73-.03,1.37-.02.64-.14,1.36-.34,2.15-.21.8-.54,1.61-.99,2.43-.46.82-1.09,1.57-1.92,2.26-.5.37-1.15.74-1.95,1.13-.8.39-1.88.58-3.25.58-.41,0-1.13-.08-2.15-.24-1.03-.16-2.06-.63-3.11-1.4-.78-.55-1.36-1.2-1.74-1.95-.39-.75-.67-1.55-.85-2.39-.18-.84-.29-1.71-.31-2.6-.02-.89-.03-1.74-.03-2.56v-3.08h5.2v4.34c0,.43.02.85.07,1.26,0,.23.02.55.07.96.05.41.17.82.38,1.23s.51.76.92,1.06c.41.3,1,.44,1.78.44.5,0,.9-.08,1.2-.24.3-.16.49-.28.58-.38.45-.36.76-.86.92-1.47.16-.62.24-1.47.24-2.56,0-.5-.01-.88-.03-1.13-.02-.25-.08-.51-.17-.79-.18-.91-.54-1.73-1.06-2.46-.52-.73-1.11-1.41-1.74-2.05l-2.94-2.94c-.37-.36-.71-.72-1.03-1.06-.32-.34-.64-.69-.96-1.06-1.14-1.23-1.9-2.44-2.29-3.62-.39-1.19-.58-2.6-.58-4.24,0-.18.01-.55.03-1.09.02-.55.11-1.17.27-1.88.16-.71.41-1.44.75-2.19s.86-1.42,1.54-2.02c.5-.41,1.19-.81,2.05-1.2.87-.39,2.03-.58,3.49-.58.27,0,.67.02,1.2.07.52.05,1.1.17,1.74.38.64.21,1.28.54,1.92.99.64.46,1.19,1.09,1.64,1.92.5.96.82,2.03.96,3.21.14,1.19.21,2.83.21,4.92l-5.06-.07c0-1-.02-1.9-.07-2.7-.05-.8-.17-1.47-.38-2.02-.21-.55-.5-.96-.89-1.23-.39-.27-.95-.41-1.68-.41-1.09,0-1.8.34-2.12,1.03-.32.68-.48,1.48-.48,2.39,0,1.41.25,2.52.75,3.32.5.8,1.23,1.65,2.19,2.57l2.53,2.46c.64.55,1.23,1.14,1.78,1.78,1.32,1.41,2.28,2.85,2.87,4.31.59,1.46.89,3.15.89,5.06Z"/>
  </g>
</svg>